<?xml version="1.0" encoding="UTF-8" standalone="no"?>
<!-- Created with Inkscape (http://www.inkscape.org/) -->

<svg
   version="1.1"
   id="svg2"
   width="2942.5288"
   height="2942.5288"
   viewBox="0 0 2942.5288 2942.5288"
   sodipodi:docname="w1.svg"
   inkscape:version="1.2.1 (9c6d41e410, 2022-07-14)"
   xmlns:inkscape="http://www.inkscape.org/namespaces/inkscape"
   xmlns:sodipodi="http://sodipodi.sourceforge.net/DTD/sodipodi-0.dtd"
   xmlns="http://www.w3.org/2000/svg"
   xmlns:svg="http://www.w3.org/2000/svg">
  <defs
     id="defs6" />
  <sodipodi:namedview
     id="namedview4"
     pagecolor="#ffffff"
     bordercolor="#000000"
     borderopacity="0.25"
     inkscape:showpageshadow="2"
     inkscape:pageopacity="0.0"
     inkscape:pagecheckerboard="0"
     inkscape:deskcolor="#d1d1d1"
     showgrid="false"
     inkscape:zoom="0.16040625"
     inkscape:cx="988.11614"
     inkscape:cy="1440.0935"
     inkscape:window-width="1280"
     inkscape:window-height="971"
     inkscape:window-x="-8"
     inkscape:window-y="-8"
     inkscape:window-maximized="1"
     inkscape:current-layer="g8" />
  <g
     inkscape:groupmode="layer"
     inkscape:label="Image"
     id="g8">
    <path
       id="path293"
       style="fill:#ffffff;stroke-width:0.778087"
       d="m 1468.6297,107.08326 c -81.7439,-0.007 -152.509,5.78858 -231.0898,18.9273 C 989.39178,167.5011 756.68577,277.05335 564.49148,442.87008 522.10214,479.44166 471.48273,529.35364 434.01662,571.51448 241.84574,787.76691 122.48533,1057.8837 92.639618,1344.0585 c -28.344814,271.7866 22.586832,542.6636 147.150352,782.5757 136.60686,263.1077 355.44946,476.88 621.15461,606.7722 172.89582,84.5216 356.02242,130.6265 552.83262,139.1842 19.6282,0.8536 107.6156,0.3583 125.2689,-0.7066 86.4839,-5.2168 153.5141,-14.2645 228.7595,-30.8719 218.4699,-48.2186 421.5559,-148.8841 593.4019,-294.1392 79.8274,-67.475 153.9018,-146.2109 216.5793,-230.2057 155.0259,-207.752 248.3753,-454.5038 269.1881,-711.5601 27.5267,-339.9817 -67.3497,-671.27893 -269.841,-942.26569 -106.7442,-142.85189 -241.1025,-264.79707 -393.052,-356.73864 -177.9357,-107.66521 -375.8641,-173.18516 -582.7877,-192.917 -47.0678,-4.48831 -82.1118,-6.09828 -132.6645,-6.10251 z m 11.6473,188.57047 c 33.1011,0.33174 66.2118,1.88154 96.508,4.61923 221.1157,19.98075 430.4938,100.53479 608.4662,234.09346 134.923,101.25242 246.3471,229.19591 329.0646,377.85161 18.5844,33.39899 44.5202,87.28763 58.831,122.23187 45.6562,111.4845 73.8343,225.5454 84.7493,343.0671 22.5219,242.4902 -27.8413,482.9007 -145.3117,693.6658 -164.3121,294.8083 -446.9225,507.6327 -774.3453,583.1305 -75.8059,17.4795 -149.6846,27.1335 -229.5361,29.9961 -164.3061,5.8906 -331.376,-23.329 -484.7509,-84.7823 -134.35973,-53.8347 -256.56312,-131.0465 -365.67535,-231.0402 -15.314,-14.0342 -58.44522,-57.4239 -72.63523,-73.0731 -41.54127,-45.8136 -78.5771,-93.1463 -111.5308,-142.5352 -112.23334,-168.2075 -179.64838,-361.2601 -196.3133,-562.1664 -2.85138,-34.3748 -3.26262,-44.124 -3.68972,-87.534 -0.52357,-53.2091 0.81062,-86.4945 5.27207,-131.4994 18.28701,-184.4752 78.59445,-360.4296 177.34468,-517.42846 84.90498,-134.98629 197.91736,-253.38268 329.13475,-344.81869 177.03261,-123.36149 382.5949,-195.93013 597.9592,-211.09232 30.265,-2.1307 63.3575,-3.01737 96.4586,-2.6856 z m -7.3503,61.76881 c -5.0152,-0.50403 -10.1342,-0.26005 -15.1882,0.79741 -9.1889,1.92263 -17.6978,6.68517 -24.9017,13.94034 -6.8611,6.91013 -10.1077,12.29506 -12.9445,21.46414 -2.6157,8.45437 -2.4497,20.45183 0.4049,29.27717 5.7961,17.91944 21.3779,31.36766 39.9782,34.49965 10.1766,1.71358 20.6954,0.0781 30.529,-4.74732 13.2734,-6.51331 23.84,-20.20365 26.9387,-34.90868 2.5649,-12.17124 -0.2707,-27.40398 -6.9827,-37.51577 -8.6721,-13.06538 -22.7884,-21.29487 -37.8337,-22.80694 z m -2.4378,254.98328 c -6.5067,-0.77441 -13.4032,1.70173 -17.5142,7.80479 -2.0763,3.08223 -2.8398,5.73796 -5.2431,18.2538 -25.5946,133.29425 -58.9576,395.23189 -75.9488,596.27349 -11.1364,131.7714 -16.1538,253.7203 -11.3292,275.4394 0.7132,3.2095 2.4787,9.3937 3.921,13.7377 13.6954,41.2463 51.1913,71.6237 93.3639,75.6433 9.9292,0.9462 9.9479,0.9496 19.8404,0.091 44.587,-3.871 82.1507,-33.8464 95.5454,-76.2423 4.1985,-13.2891 4.8259,-19.4276 4.8259,-47.0185 0,-136.3589 -26.4083,-420.4317 -62.6737,-674.26756 -11.4235,-79.95641 -26.2063,-168.82314 -29.6117,-178.01814 -2.5543,-6.89633 -8.6691,-10.92241 -15.1759,-11.69682 z m -151.4307,797.44988 c -0.3461,-0.4958 -36.4753,2.7293 -65.5698,5.8504 -95.8899,10.2865 -200.1122,26.7879 -331.84523,52.5428 -54.98525,10.7499 -53.81521,10.422 -57.74038,16.1879 -4.67827,6.8724 -2.02235,17.7253 5.26381,21.4931 3.29711,1.7051 75.74876,16.1829 136.1143,27.2031 116.23,21.2187 222.7042,35.7992 309.2904,42.3498 11.5545,0.8742 22.5835,1.7095 24.5092,1.8551 1.9258,0.1459 4.5074,0.3262 5.7389,0.4008 l 2.2395,0.1311 -2.0578,-2.5285 c -16.4626,-20.2275 -24.276,-40.4748 -27.0294,-70.0445 -0.8787,-9.4376 -0.4319,-56.4192 0.7933,-83.4314 0.2936,-6.4192 0.4222,-11.825 0.2932,-12.0108 z m 1231.8931,30.0581 c -14.1758,0 -25.1462,4.6222 -35.4871,14.9484 -10.301,10.2863 -14.6757,20.8593 -14.6757,35.4747 0,14.0399 4.7397,25.4342 14.7377,35.4209 6.6983,6.6909 13.9286,10.8845 22.7533,13.1967 19.4092,5.0852 41.328,-2.58 53.0551,-18.5554 6.784,-9.2418 9.771,-18.5412 9.7921,-30.4671 0.021,-14.3248 -4.2661,-24.5241 -14.742,-35.0698 -10.2458,-10.3141 -21.2277,-14.9484 -35.4334,-14.9484 z m -2177.48031,1.3014 c -17.6139,4.4477 -32.03096,18.9325 -36.59033,36.7595 -6.77381,26.4852 9.33221,53.8121 35.97051,61.0295 8.68467,2.353 21.3584,1.7465 29.95063,-1.4296 7.7541,-2.8664 13.20237,-6.4032 19.05957,-12.3744 9.37579,-9.5588 14.02803,-20.9537 14.07647,-34.4749 0.0349,-9.8607 -1.3966,-15.7972 -5.89992,-24.4679 -6.13728,-11.8161 -18.38602,-21.4753 -31.6654,-24.9679 -6.55212,-1.7233 -18.23604,-1.7575 -24.90153,-0.074 z M 1470.5756,2522.6899 c -9.8805,-0.4527 -16.3922,0.8674 -24.8975,5.0449 -7.8205,3.8409 -17.9504,13.7962 -21.9599,21.5798 -6.6841,12.9772 -7.5941,27.9 -2.5204,41.3913 6.5087,17.3066 22.756,29.9746 41.2095,32.1282 21.1782,2.4713 41.6681,-8.6171 51.0347,-27.6123 4.1152,-8.3452 5.641,-15.8625 5.1274,-25.286 -0.7045,-12.9315 -5.3116,-23.261 -14.5476,-32.6073 -9.4191,-9.5317 -19.6417,-14.0058 -33.4462,-14.6386 z" />
  </g>
</svg>
